/* XPM */
static char * back_xpm[] = {
"32 32 29 1",
" 	c #72751B",
".	c #7F8124",
"+	c #787B21",
"@	c #686F16",
"#	c #7C7C23",
"$	c #33350C",
"%	c #74DFF5",
"&	c #A6858F",
"*	c #36A6E0",
"=	c #635D96",
"-	c #636917",
";	c #FFB482",
">	c #4862E5",
",	c #FFE3AE",
"'	c #74771D",
")	c #6C7118",
"!	c #73761D",
"~	c #696F16",
"{	c #7C7E22",
"]	c #75781E",
"^	c #6F741A",
"/	c #73771E",
"(	c #C4C7EE",
"_	c #FCFCFC",
":	c #6E7319",
"<	c #76791F",
"[	c #6A7017",
"}	c #73761C",
"|	c #6D7219",
"                                ",
"     ..                         ",
"     .                          ",
"    +@                          ",
"  ++@+.                         ",
"  +@++@                         ",
"  @@+@                          ",
"               .#     .         ",
"                .++ +.          ",
"             $$$$$$$+@          ",
"            $%%%%%%%$@ ..   .   ",
"           $%%%%%%%%%$  .. .    ",
"           $%%%%%%%%%$  ++@+    ",
"           $%%%%%%%%%$   +@@    ",
"           $%%%&&&%%%$          ",
"           $*%=&&&=%*$-  -      ",
"          $;=*=&&&=*=;$--       ",
"          $;&==&&&==&;$    --   ",
"           $&&=&&&=&&$          ",
"            $=&=&=&=$           ",
"            $$>*=*>$$           ",
"           $,*%%%%%*,$          ",
"      ')  $,;$%%%%%$;,$         ",
"     !~+{ $,,$=$$$=$,,$         ",
"    ]@++@  $$$,;$;,$$$          ",
"     ^/)    $(__$__($           ",
"    !~+{       :<[}|            ",
"   ]@++@                        ",
"    :<)                         ",
"                                ",
"                                ",
"                                "};
