/* XPM */
static char * coin_bag_xpm[] = {
"32 32 31 1",
" 	c #72751B",
".	c #7F8124",
"+	c #787B21",
"@	c #686F16",
"#	c #636917",
"$	c #33350C",
"%	c #FFEE83",
"&	c #F0B541",
"*	c #74771D",
"=	c #6C7118",
"-	c #CF752B",
";	c #14182E",
">	c #73761D",
",	c #696F16",
"'	c #7C7E22",
")	c #6E741B",
"!	c #697016",
"~	c #6E7219",
"{	c #75781E",
"]	c #71751B",
"^	c #697017",
"/	c #7B7D22",
"(	c #777A20",
"_	c #6F741A",
":	c #73771E",
"<	c #767920",
"[	c #6E7319",
"}	c #76791F",
"|	c #6A7017",
"1	c #73761C",
"2	c #6D7219",
"                                ",
"     ..                         ",
"     .                          ",
"    +@                          ",
"  ++@+.                         ",
"  +@++@                         ",
"  @@+@                          ",
"               ..     .         ",
"                .++ +.          ",
"             +..@+@++@          ",
"              .+  @++@ ..   .   ",
"              @    +@   .. .    ",
"               #  #     ++@+    ",
"                ##       +@@    ",
"                                ",
"                      #  #      ",
"                       ##       ",
"                           ##   ",
"           $$$       $          ",
"          $%&%$   $ $%$         ",
"         $%&&&%$$$%$$&$         ",
"         $&&&&&&&&&&&&$         ",
"      *= $-&&&-;;;;;;;          ",
"     >,+' ;---;@+)!~            ",
"    {@++@  ;;; ]^+/('           ",
"     _:=      {@++@<@           ",
"    >,+'       [}|12            ",
"   {@++@                        ",
"    [}=                         ",
"                                ",
"                                ",
"                                "};
