/* XPM */
static char * enemie_xpm[] = {
"32 32 32 1",
" 	c #72751B",
".	c #3E4652",
"+	c #7F8124",
"@	c #787B21",
"#	c #686F16",
"$	c #252329",
"%	c #BDB3AC",
"&	c #F7ECD5",
"*	c #615E70",
"=	c #3B3B4D",
"-	c #636917",
";	c #74771D",
">	c #6C7118",
",	c #73761D",
"'	c #696F16",
")	c #7C7E22",
"!	c #75781E",
"~	c #6E741B",
"{	c #697016",
"]	c #6E7219",
"^	c #968C94",
"/	c #697017",
"(	c #7B7D22",
"_	c #777A20",
":	c #6F741A",
"<	c #73771E",
"[	c #767920",
"}	c #76791F",
"|	c #6A7017",
"1	c #73761C",
"2	c #6D7219",
"3	c #6E7319",
"                         .      ",
"     ++                  ..     ",
"     +                  ...     ",
"    @#               $  ...     ",
"  @@#@+              $ ....     ",
"  @#@@#           ...$.....     ",
"  ##@#             ..$.....     ",
"               ++    $+...      ",
"           %&&&%+@@ @$  ..      ",
"          %&&&&&%@#@@$  .       ",
"          &**&&&&*#@@$ ++   +   ",
"          &*==*&=* @#$  ++ +    ",
"          &&==&&= -  $  @@#@    ",
"          %&&&&*&-   $   @##    ",
"           %%&&&%    $          ",
"           **&%&     $-  -      ",
"       &&%%%**&      $ --       ",
"      &&&%&&&&&      $     --   ",
"     &&& **%&%*     ==          ",
"     &&  %&&&&&=======          ",
"     &&   **%&%*==== $          ",
"     &&&  %&&&&&;>   $          ",
"     &&>    ** ,'@)  $          ",
"     ,&@)   **!#@~{] $          ",
"    !#@@# &&&^^^/@(_)$          ",
"     :<>  &&&&^^@@#[#$          ",
"    ,'@) &&&  **}|12 $          ",
"   !#@@# &&&  **     $          ",
"    3}> &&&  **      $          ",
"        &&   **      $          ",
"       &&    **      $          ",
"       &&    ***     $          "};
