/* XPM */
static char * exit_closed_xpm[] = {
"32 32 29 1",
" 	c #72751B",
".	c #7F8124",
"+	c #787B21",
"@	c #686F16",
"#	c #14182E",
"$	c #FFEE83",
"%	c #BD6A62",
"&	c #7D3833",
"*	c #636917",
"=	c #F0B541",
"-	c #3B2027",
";	c #74771D",
">	c #6C7118",
",	c #73761D",
"'	c #696F16",
")	c #75781E",
"!	c #71751B",
"~	c #697017",
"{	c #7B7D22",
"]	c #777A20",
"^	c #7C7E22",
"/	c #6F741A",
"(	c #73771E",
"_	c #767920",
":	c #6E7319",
"<	c #76791F",
"[	c #6A7017",
"}	c #73761C",
"|	c #6D7219",
"                                ",
"     ..                         ",
"     .                          ",
"    +@                          ",
"  ++@+.                         ",
"  +@++@                         ",
"  @@+@                          ",
"               ..     .         ",
"                .++ +.          ",
"          #  +..@+@++#          ",
"         #$##########$#..   .   ",
"        #$$%%%%%%%%%%$$#.. .    ",
"        #$$&&&&&&&&&&$$#++@+    ",
"        #$$%%%%%%%%%%$$# +@@    ",
"        #$$&&&&&&&&&&$$#        ",
"        #$$%%%%%%%%%%$$# *      ",
"        #==----------==#*       ",
"        #====&&==&&====#   **   ",
"        #######==#######        ",
"        #==&&&#==#&&&==#        ",
"        #==----##----==#        ",
"        #==&&&&&&&&&&==#        ",
"      ;>#====$$$$$$====#        ",
"     ,'+################        ",
"    )@++@      !~+{]^           ",
"     /(>      )@++@_@           ",
"    ,'+^       :<[}|            ",
"   )@++@                        ",
"    :<>                         ",
"                                ",
"                                ",
"                                "};
