/* XPM */
static char * front_xpm[] = {
"32 32 28 1",
" 	c #72751B",
".	c #7F8124",
"+	c #787B21",
"@	c #686F16",
"#	c #33350C",
"$	c #74DFF5",
"%	c #C4C7EE",
"&	c #FCFCFC",
"*	c #36A6E0",
"=	c #636917",
"-	c #FFB482",
";	c #635D96",
">	c #A6858F",
",	c #FFE3AE",
"'	c #1C2F60",
")	c #74771D",
"!	c #6C7118",
"~	c #73761D",
"{	c #696F16",
"]	c #7C7E22",
"^	c #75781E",
"/	c #6F741A",
"(	c #73771E",
"_	c #6E7319",
":	c #76791F",
"<	c #6A7017",
"[	c #73761C",
"}	c #6D7219",
"                                ",
"     ..                         ",
"     .                          ",
"    +@                          ",
"  ++@+.                         ",
"  +@++@                         ",
"  @@+@                          ",
"               ..     .         ",
"                .++ +.          ",
"             #######+@          ",
"            #$$$$$$$#@ ..   .   ",
"           #$$$$$$$$$#  .. .    ",
"           #$$$$$$$$$#  ++@+    ",
"           #$$$%&%$$$#   +@@    ",
"           #$$$&&&$$$#          ",
"           #*********#=  =      ",
"          #-;$$$$$$$;-#==       ",
"          #->,',,,',>-#    ==   ",
"           #>,',,,',>#          ",
"            #-,,,,,-#           ",
"            ##**%**##           ",
"           #,*$$&$$*,#          ",
"      )!  #,-#$$&$$#-,#         ",
"     ~{+] #,,#;###;#,,#         ",
"    ^@++@  ###,-#-,###          ",
"     /(!    #&&%#%&&#           ",
"    ~{+]       _:<[}            ",
"   ^@++@                        ",
"    _:!                         ",
"                                ",
"                                ",
"                                "};
