/* XPM */
static char * left_xpm[] = {
"32 32 31 1",
" 	c #72751B",
".	c #7F8124",
"+	c #787B21",
"@	c #686F16",
"#	c #33350C",
"$	c #74DFF5",
"%	c #36A6E0",
"&	c #FCFCFC",
"*	c #C4C7EE",
"=	c #635D96",
"-	c #6E701A",
";	c #A6858F",
">	c #636917",
",	c #FFE3AE",
"'	c #1C2F60",
")	c #FFB482",
"!	c #4862E5",
"~	c #74771D",
"{	c #6C7118",
"]	c #73761D",
"^	c #696F16",
"/	c #7C7E22",
"(	c #75781E",
"_	c #978BDE",
":	c #6F741A",
"<	c #73771E",
"[	c #6E7319",
"}	c #76791F",
"|	c #6A7017",
"1	c #73761C",
"2	c #6D7219",
"                                ",
"     ..                         ",
"     .                          ",
"    +@                          ",
"  ++@+.                         ",
"  +@++@                         ",
"  @@+@                          ",
"               ..     .         ",
"                .++ +.          ",
"             #######+@          ",
"            #$$$$$$$#@ ..   .   ",
"           #$$$$$$$$$#  .. .    ",
"           #$$$$$$$$$#  ++@+    ",
"           #%&*$$$$$$#   +@@    ",
"          #$$*&$$$$$$=#         ",
" -        #%$$$%%$$$%;#  >      ",
"           ##%$$$%%%=;#>>       ",
"           ##,,',=,,;=#    >>   ",
"           #,,,',;,,;=#         ",
"            #,,,);)=#=#         ",
"            ##*%%!=###          ",
"           #;#&$$%,)#           ",
"      ~{   #;#&$$$#),#          ",
"     ]^+/   ##)##=#,,#          ",
"    (@++@   #__=#,)##           ",
"     :<{      (#&&*#@           ",
"    ]^+/       [}|12            ",
"   (@++@                        ",
"    [}{                         ",
"                                ",
"                                ",
"                                "};
