/* XPM */
static char * open_exit_xpm[] = {
"32 32 37 1",
" 	c #72751B",
".	c #7F8124",
"+	c #787B21",
"@	c #686F16",
"#	c #71741C",
"$	c #70731C",
"%	c #14182E",
"&	c #FFEE83",
"*	c #BD6A62",
"=	c #6C6F1E",
"-	c #F0B541",
";	c #3B2027",
">	c #6E711D",
",	c #7D3833",
"'	c #686A20",
")	c #686B1F",
"!	c #6B6E1E",
"~	c #2C354D",
"{	c #636917",
"]	c #6D701D",
"^	c #74771D",
"/	c #6A6F19",
"(	c #73761D",
"_	c #696F16",
":	c #767922",
"<	c #75781E",
"[	c #747722",
"}	c #6F741A",
"|	c #73771E",
"1	c #6C7118",
"2	c #767920",
"3	c #7C7E22",
"4	c #6E7319",
"5	c #76791F",
"6	c #6A7017",
"7	c #73761C",
"8	c #6D7219",
"                                ",
"     ..                         ",
"     .                          ",
"    +@                          ",
"  ++@+.                         ",
"  +@++@               #$        ",
"  @@+@                          ",
"          %    ..    %.         ",
"         %&%%%%%%%%%%&%         ",
"        %&&**********&&%        ",
"       =%--;;;;;;;;;;--%.   .   ",
"       >%----,,--,,----%.. .    ",
"       '%%%%%%%--%%%%%%%++@+    ",
"       )%-----%--%-----% +@@    ",
"       !%-~~~~~%%~~~~~-%        ",
"       >%-~~~~~~~~~~~~-% {      ",
"       >%&~~~~~~~~~~~~&%{       ",
"       =%&~~~~~~~~~~~~&%   {{   ",
"       !%&&&&&&&&&&&&&&%        ",
"       )%%%%%%%%%%%%%%%%        ",
"       ]%--,,,,,,,,,,--%        ",
"       ]%--;;;;;;;;;;--%        ",
"      ^/%--,,,,,,,,,,--%        ",
"     (_:%----&&&&&&----%        ",
"    <@+[%%%%%%%%%%%%%%%%        ",
"     }|1      <@++@2@           ",
"    (_+3       45678            ",
"   <@++@                        ",
"    451                         ",
"                                ",
"                                ",
"                                "};
