/* XPM */
static char * toxic_river_xpm[] = {
"32 32 12 1",
" 	c #72751B",
".	c #7F8124",
"+	c #787B21",
"@	c #686F16",
"#	c #C0C26B",
"$	c #27280A",
"%	c #6D7020",
"&	c #636917",
"*	c #75781E",
"=	c #6E7319",
"-	c #76791F",
";	c #6C7118",
"                                ",
"     ..                         ",
"     .                          ",
"    +@                          ",
"  ++@+.                         ",
"  +@++@                         ",
"  @@+@   ###                    ",
"        #####  ..     .         ",
"      ####$$#   .++ +.          ",
"      ###$$$$#..@+#####  #####  ",
"     ###$$$$$$####$$$$$###$###  ",
"     ##$$$$$$$$$$$$$$$$$$$$##%  ",
"     ##$$$$$$$$$$$$$$$$$$$$##   ",
"     ###$$$$$$$$$$$$$$$$$$$#    ",
"   # ###$$$$$$$$$$$$$$$$$$##    ",
"     ###$$$$$$$$$$$$$$$$$$##    ",
"    ####$$$$$$$$$$$$$$$$$$##    ",
"     ###$$$$$$$$$$$$$$$$$$##&   ",
"     ##$$$$$$$$$$$$$$$$$$$##    ",
"      ##$$$$$$$$$$$$$$$$$$##    ",
"      ##$$$$$$$$$$$$$$$$$###    ",
"       ##$$$$$$$$$$$$$$$$##     ",
"      ###$$$$$$$$$$$$$$$$#      ",
"     ##$$$$$$$$$$$$$$$$$##      ",
"    ##$$$$$$$$$$$$$$$$$$##      ",
"    #$$$$$$$$$$$$$$$$$$###      ",
"    #####$$$$##$$$$$$$$##       ",
"   *@++##########$$$$$###       ",
"    =-;  ##########$$$$##       ",
"           #####   #####        ",
"                                ",
"                                "};
