/* XPM */
static char * wall_xpm[] = {
"32 32 223 2",
"  	c #72751B",
". 	c #7F8124",
"+ 	c #787B21",
"@ 	c #686F16",
"# 	c #654B1A",
"$ 	c #644A1A",
"% 	c #664C1A",
"& 	c #8C8733",
"* 	c #674C1A",
"= 	c #674D1A",
"- 	c #8D8833",
"; 	c #63491A",
"> 	c #8E8833",
", 	c #674D1B",
"' 	c #838224",
") 	c #828123",
"! 	c #777622",
"~ 	c #767622",
"{ 	c #634919",
"] 	c #8E8933",
"^ 	c #848224",
"/ 	c #838223",
"( 	c #787722",
"_ 	c #777722",
": 	c #767522",
"< 	c #624819",
"[ 	c #848324",
"} 	c #838123",
"| 	c #797822",
"1 	c #624919",
"2 	c #644B1A",
"3 	c #8D8733",
"4 	c #89862D",
"5 	c #89872C",
"6 	c #74761D",
"7 	c #8F8934",
"8 	c #675D1A",
"9 	c #665C19",
"0 	c #614719",
"a 	c #604619",
"b 	c #5F4519",
"c 	c #888529",
"d 	c #8A872E",
"e 	c #74751E",
"f 	c #685E1A",
"g 	c #6D6F1D",
"h 	c #6C6E1D",
"i 	c #6C6D1D",
"j 	c #5E4519",
"k 	c #888429",
"l 	c #75761D",
"m 	c #76771E",
"n 	c #75751E",
"o 	c #73751E",
"p 	c #72731D",
"q 	c #878429",
"r 	c #766916",
"s 	c #776916",
"t 	c #8A872D",
"u 	c #75771D",
"v 	c #77781E",
"w 	c #77771E",
"x 	c #76761E",
"y 	c #818023",
"z 	c #807F23",
"A 	c #7F7E22",
"B 	c #655B19",
"C 	c #604519",
"D 	c #89872D",
"E 	c #78771F",
"F 	c #8B8632",
"G 	c #8A8532",
"H 	c #6E701B",
"I 	c #87842D",
"J 	c #88842E",
"K 	c #89852F",
"L 	c #89862C",
"M 	c #8A862D",
"N 	c #80741E",
"O 	c #7F741E",
"P 	c #7F731D",
"Q 	c #77761E",
"R 	c #70711B",
"S 	c #6E6F1B",
"T 	c #6C6F1B",
"U 	c #5E4419",
"V 	c #7F731E",
"W 	c #7E731D",
"X 	c #70731C",
"Y 	c #6E711B",
"Z 	c #6C6E1B",
"` 	c #6B6E1B",
" .	c #6A6D1B",
"..	c #5D4418",
"+.	c #71731C",
"@.	c #7F7E23",
"#.	c #7E7D22",
"$.	c #555915",
"%.	c #5C4318",
"&.	c #787821",
"*.	c #7B7A23",
"=.	c #70721C",
"-.	c #6A6C1A",
";.	c #7F7F23",
">.	c #7D7D22",
",.	c #6B6D1B",
"'.	c #555815",
").	c #7B7B25",
"!.	c #797A23",
"~.	c #8A8632",
"{.	c #696C1A",
"].	c #686B1A",
"^.	c #898432",
"/.	c #888431",
"(.	c #7D7C22",
"_.	c #635919",
":.	c #625819",
"<.	c #545916",
"[.	c #5D4318",
"}.	c #686A1B",
"|.	c #777721",
"1.	c #7A7922",
"2.	c #676A1A",
"3.	c #6F721C",
"4.	c #888331",
"5.	c #555A17",
"6.	c #5D4417",
"7.	c #5F4619",
"8.	c #68691B",
"9.	c #696A1B",
"0.	c #696B1B",
"a.	c #898532",
"b.	c #6E711C",
"c.	c #67691A",
"d.	c #6F711C",
"e.	c #6D701B",
"f.	c #555916",
"g.	c #545915",
"h.	c #535715",
"i.	c #5C4317",
"j.	c #6F7021",
"k.	c #707021",
"l.	c #626418",
"m.	c #6D6F1B",
"n.	c #575B17",
"o.	c #575A17",
"p.	c #545815",
"q.	c #535815",
"r.	c #5C4217",
"s.	c #5D4319",
"t.	c #6F6F21",
"u.	c #67691B",
"v.	c #616318",
"w.	c #5A5E17",
"x.	c #585213",
"y.	c #575213",
"z.	c #565917",
"A.	c #555917",
"B.	c #5C5E17",
"C.	c #5B5E17",
"D.	c #5D4317",
"E.	c #606218",
"F.	c #606318",
"G.	c #7A7A28",
"H.	c #7B7A28",
"I.	c #5D6018",
"J.	c #595E18",
"K.	c #595D17",
"L.	c #585D17",
"M.	c #575212",
"N.	c #575112",
"O.	c #555816",
"P.	c #5B4017",
"Q.	c #75781E",
"R.	c #5D4218",
"S.	c #7C7A29",
"T.	c #797928",
"U.	c #7A7928",
"V.	c #5C5F18",
"W.	c #595C17",
"X.	c #575C17",
"Y.	c #565112",
"Z.	c #636619",
"`.	c #545816",
" +	c #5A3F17",
".+	c #6F741A",
"++	c #5C4017",
"@+	c #5B3F17",
"#+	c #5B5E18",
"$+	c #5A5D18",
"%+	c #595C18",
"&+	c #585C17",
"*+	c #585B17",
"=+	c #553816",
"-+	c #565A17",
";+	c #565A16",
">+	c #636519",
",+	c #626519",
"'+	c #583A16",
")+	c #593A16",
"!+	c #593B16",
"~+	c #593D16",
"{+	c #73761D",
"]+	c #696F16",
"^+	c #5B3D16",
"/+	c #5B3E16",
"(+	c #5A3D16",
"_+	c #593B15",
":+	c #575B16",
"<+	c #573715",
"[+	c #553815",
"}+	c #6A7017",
"|+	c #543315",
"1+	c #565916",
"2+	c #563615",
"3+	c #583715",
"4+	c #583615",
"5+	c #563515",
"6+	c #523215",
"7+	c #543415",
"8+	c #6E7319",
"9+	c #76791F",
"0+	c #6C7118",
"                                                                ",
"          . .                                                   ",
"          .                                                     ",
"        + @                   # # $                             ",
"    + + @ + .               % & & & $                           ",
"    + @ + + @       % * =   = - & & #   $ ;                     ",
"    @ @ + @       * - - > , ' - - ) ) # ! ~ {                   ",
"                  = > ] ] ^ ^ ' ' / ) ( _ ~ : <                 ",
"            # % = ' ^ ^ [ [ [ ^ ^ ' } | ( ! ~ 1                 ",
"          2 & 3 - ] 4 5 6 [ 7 ] ] ' / ) ( _ 8 9 0 a b           ",
"          # & 3 - ] c d 6 6 7 7 ] ] / ) e f 8 9 g h i j .       ",
"            % - - k c 6 6 6 l 7 ] ] / m n o p 9 g h i b         ",
"              % / q r s t t u m ] > v w x y z A B h C +         ",
"          $ # ) } ' r [ 5 D D m m E w w & F G A H a @ @         ",
"        ; I J K - / ' ^ L M M N O P Q m F F G R S T b U         ",
"        1 G F & & ) / - > ' O V P W & & F G X Y T Z `  ...      ",
"        < G F F +.+.- - - / } } W & & F z @.A #.T ` `  .$.%.    ",
"          1 &.*.=.+.& & -.) ) ) ) & F F ;.A #.>.Z ` ,.$.'...    ",
"        0 &.).!.~.F F {.].& & & y y z ;.A ^./.(.` _.:.<.[.      ",
"      a }.|.|.1.G G ~.2.2.F F F 3.z @.H ^./.4.Z ` 5.<.6.        ",
"      7.8.}.9.0.^.a.b.c.2.G G d.d.Y H e./.4.Z ` ,.f.g.h.i.      ",
"      U j.k.8.l.l.e.H H H H H 9 H e.m.m.n.o.`  .f.g.p.q.h.r.    ",
"      s.t.k.u.v.T T m.m.m.m.e.w.w.m.T Z x.y.z.A.f.B.C.C.C.r.    ",
"        D.[.E.F.G.G.H.I.T T J.K.L.Z ` y.M.N.5.f.O.C.C.C.P.      ",
"        Q.@ R.S.T.U.G.V._._.W.W.X._.M.N.Y.Z.Z.O.`.C.C. +        ",
"          .+++T.T.T.@+#+$+%+&+*+n.=+-+;+Z.>+,+'+)+!+~+          ",
"        {+]++ ^+/+(+  _+K.&+:+<+[+}+|+1+,+,+2+                  ",
"      Q.@ + + @         3+4+5+        6+6+7+                    ",
"        8+9+0+                                                  ",
"                                                                ",
"                                                                ",
"                                                                "};
